<?xml version="1.0" standalone="no"?>
<!DOCTYPE svg PUBLIC "-//W3C//DTD SVG 20010904//EN"
 "http://www.w3.org/TR/2001/REC-SVG-20010904/DTD/svg10.dtd">
<svg version="1.0" xmlns="http://www.w3.org/2000/svg"
 width="8000.000000pt" height="8000.000000pt" viewBox="0 0 8000.000000 8000.000000"
 preserveAspectRatio="xMidYMid meet">
<metadata>
Created by potrace 1.16, written by Peter Selinger 2001-2019
</metadata>
<g transform="translate(0.000000,8000.000000) scale(0.100000,-0.100000)"
fill="#000000" stroke="none">
<path d="M39430 73469 c-210 -8 -713 -31 -983 -46 -65 -3 -119 -9 -121 -12 -2
-3 48 -5 112 -4 77 1 40 -3 -108 -12 -124 -7 -254 -13 -290 -12 l-65 1 70 7
c109 11 -238 0 -540 -16 -2270 -126 -4626 -499 -6800 -1078 -461 -123 -1157
-325 -1420 -412 -17 -6 -18 -5 -5 5 13 10 12 11 -3 6 -10 -3 -23 -6 -28 -6 -6
0 -8 -4 -5 -9 4 -5 -4 -7 -16 -3 -13 3 -19 1 -15 -5 5 -7 -1 -9 -15 -5 -14 3
-19 1 -14 -6 4 -7 2 -10 -6 -7 -18 7 -290 -89 -281 -100 5 -4 2 -5 -5 -1 -17
10 -54 -3 -46 -16 4 -6 -1 -8 -16 -3 -14 4 -20 3 -17 -3 4 -5 -40 -26 -96 -47
-56 -20 -214 -81 -352 -135 -2418 -948 -4693 -2154 -6805 -3608 -267 -184
-740 -521 -740 -528 0 -2 93 58 208 134 947 632 2064 1288 3067 1802 132 68
237 120 234 116 -3 -3 -95 -56 -205 -117 -733 -409 -1504 -879 -2074 -1267
-251 -170 -657 -462 -703 -504 -58 -54 -47 -47 238 142 899 599 1801 1138
2795 1669 316 169 1232 626 1555 776 4173 1935 8488 2955 13095 3095 720 22
1831 11 2585 -25 4243 -204 8307 -1185 12160 -2937 710 -323 1512 -724 2200
-1100 846 -463 1876 -1090 2587 -1574 91 -63 169 -114 173 -114 3 0 5 23 3 52
l-3 52 -200 133 c-694 464 -1455 934 -2135 1318 -321 182 -370 209 -647 358
-535 288 -1320 684 -1773 892 -74 35 -171 79 -215 100 -1256 584 -2847 1190
-4265 1625 -74 23 -169 52 -210 65 -144 45 -696 201 -1045 294 -192 51 -721
183 -890 222 -71 16 -188 43 -260 59 -71 17 -193 44 -270 60 -77 17 -225 48
-330 70 -231 49 -745 148 -990 190 -99 17 -229 40 -290 50 -305 53 -913 140
-1335 190 -467 55 -547 64 -935 100 -1223 112 -2585 162 -3515 129z"/>
<path d="M24845 70042 c-247 -126 -553 -284 -680 -351 -2695 -1445 -5070
-3158 -7310 -5275 -258 -245 -1026 -1013 -1271 -1271 -2186 -2314 -3951 -4783
-5413 -7573 -122 -233 -462 -913 -555 -1112 -33 -69 -78 -165 -102 -215 -402
-856 -834 -1901 -1176 -2850 -1116 -3097 -1759 -6292 -1933 -9605 -34 -660
-40 -912 -40 -1790 0 -878 6 -1130 40 -1790 208 -3967 1096 -7793 2650 -11425
149 -347 338 -773 459 -1030 24 -49 69 -146 101 -215 96 -203 505 -1017 631
-1255 1451 -2736 3190 -5157 5338 -7430 418 -441 1181 -1193 1657 -1630 2814
-2588 6005 -4653 9514 -6157 3126 -1340 6385 -2185 9765 -2533 713 -73 1435
-123 2285 -157 413 -17 1977 -17 2390 0 1328 54 2452 154 3630 323 310 44 325
47 325 61 0 5 -8 7 -17 4 -20 -6 -177 -24 -270 -31 -34 -2 -101 -9 -150 -15
-48 -5 -110 -12 -138 -14 -27 -3 -97 -9 -155 -15 -58 -6 -130 -13 -160 -16
-54 -5 -499 -41 -635 -50 -38 -3 -92 -7 -120 -10 -402 -33 -990 -63 -1765 -89
-209 -8 -1585 -19 -1580 -14 3 3 113 8 245 12 240 7 552 20 740 32 55 3 152 9
215 12 63 4 -393 7 -1015 7 -1122 0 -1438 6 -2115 40 -4383 223 -8582 1282
-12570 3170 -596 282 -1456 728 -2060 1068 -3353 1886 -6362 4352 -8935 7322
-978 1129 -1976 2460 -2780 3710 -3073 4772 -4872 10186 -5250 15795 -57 846
-70 1285 -70 2315 0 916 5 1141 41 1805 262 4923 1588 9641 3932 13990 717
1330 1599 2715 2461 3860 286 381 545 699 558 686 2 -2 -38 -73 -90 -157 -116
-190 -143 -236 -156 -271 -15 -41 0 -34 33 15 17 23 122 166 234 317 1516
2038 3275 3918 5222 5581 507 434 1282 1052 1728 1378 113 83 152 119 65 60
-548 -372 -1317 -940 -1891 -1397 -107 -84 -196 -151 -199 -149 -9 9 658 555
1072 878 1466 1144 3075 2200 4810 3156 61 33 196 108 300 165 105 58 269 147
365 198 182 97 285 160 260 160 -8 0 -217 -103 -465 -228z"/>
<path d="M39955 66108 c-132 -4 -348 -14 -480 -22 -226 -15 -339 -21 -915 -46
-1435 -64 -3048 -331 -4410 -729 -134 -39 -189 -49 -90 -16 28 9 49 19 47 21
-4 5 -496 -162 -505 -171 -9 -9 2 -6 78 20 40 14 75 23 77 22 1 -2 -52 -25
-120 -52 -1437 -568 -2888 -1373 -4202 -2333 -239 -175 -246 -184 -35 -47 409
267 956 583 1460 846 381 198 453 225 170 64 -463 -264 -1124 -701 -1353 -893
-42 -36 -75 -67 -73 -69 2 -2 102 61 222 140 1988 1306 4185 2216 6484 2686
963 196 1878 310 2920 363 321 16 1314 16 1640 0 1376 -69 2655 -255 3925
-573 1636 -410 3163 -1021 4613 -1848 1983 -1131 3752 -2648 5187 -4446 208
-260 526 -688 737 -990 648 -929 1275 -2050 1741 -3115 807 -1845 1308 -3782
1501 -5810 59 -619 76 -975 86 -1850 5 -404 14 -802 19 -885 13 -172 39 -462
50 -550 12 -87 12 1736 1 2090 -40 1255 -181 2401 -436 3560 -543 2462 -1561
4769 -3001 6800 -284 401 -691 929 -948 1230 -627 735 -1302 1424 -1935 1976
-274 238 -286 248 -474 402 -1156 947 -2413 1748 -3732 2380 -207 99 -303 144
-579 267 -430 192 -1057 433 -1580 608 -291 97 -487 157 -882 271 -640 185
-1625 389 -2437 506 -964 138 -2045 214 -2771 193z"/>
<path d="M31555 64264 c-2270 -1141 -4254 -2689 -5894 -4599 -2664 -3102
-4233 -6886 -4541 -10950 -60 -794 -65 -1808 -14 -2630 114 -1841 476 -3593
1090 -5279 812 -2228 2051 -4298 3637 -6077 283 -318 459 -503 826 -869 415
-414 448 -453 545 -648 49 -97 88 -210 112 -322 25 -116 30 -347 10 -482 -9
-62 -27 -223 -41 -358 -57 -543 -170 -1386 -280 -2078 -614 -3859 -1643 -7426
-2917 -10112 -163 -343 -228 -610 -228 -940 0 -328 63 -613 199 -895 106 -221
214 -376 381 -549 178 -184 270 -250 730 -526 494 -297 1020 -592 1535 -863
5036 -2644 10755 -3834 16470 -3426 549 39 1271 111 1750 174 105 14 232 30
283 37 50 6 92 15 92 21 0 5 -15 7 -32 3 -18 -3 -85 -8 -147 -11 -63 -4 -118
-8 -121 -10 -3 -2 -46 -6 -95 -10 -50 -3 -106 -7 -125 -10 -19 -3 -100 -10
-180 -15 -80 -6 -159 -13 -176 -15 -17 -2 -78 -6 -135 -10 -57 -3 -115 -8
-129 -10 -14 -2 -81 -7 -150 -10 -69 -3 -150 -8 -180 -10 -30 -2 -107 -7 -170
-10 -63 -3 -198 -10 -300 -15 -555 -31 -2200 -53 -2355 -32 l-70 9 105 2 c170
2 1193 48 1230 55 8 2 -370 1 -840 -2 -1297 -7 -2207 29 -3335 134 -4523 419
-8909 1855 -12805 4192 -151 90 -319 194 -373 229 -430 283 -720 705 -823
1197 -35 167 -44 432 -20 594 33 224 68 329 211 632 1354 2870 2447 6804 3029
10900 56 396 126 952 165 1315 17 154 37 338 46 410 39 331 -8 628 -144 910
-102 211 -193 325 -477 599 -897 866 -1802 1954 -2521 3031 -1570 2353 -2579
5023 -2947 7800 -176 1325 -214 2725 -110 4040 130 1653 482 3281 1044 4835
528 1460 1256 2876 2119 4123 321 464 736 996 749 959 2 -6 -22 -60 -52 -121
-81 -160 -73 -178 21 -50 769 1039 1256 1612 2033 2390 602 603 1122 1064
1740 1544 212 164 225 178 65 70 -439 -298 -871 -615 -1290 -947 -64 -51 -9 1
110 104 1030 886 2172 1680 3475 2418 91 51 188 106 215 123 28 17 100 59 162
94 102 58 138 84 116 83 -4 0 -129 -62 -278 -136z"/>
<path d="M40143 60855 c-231 -63 -424 -218 -529 -427 -62 -123 -87 -226 -87
-368 -1 -153 16 -226 83 -365 101 -210 261 -349 485 -424 l90 -30 3 -2371 c2
-2238 1 -2370 -15 -2370 -15 0 -15 -3 4 -21 17 -17 28 -20 56 -15 20 4 45 14
56 24 23 18 41 94 41 168 0 32 4 44 15 44 13 0 15 251 15 2198 0 1283 4 2227
10 2268 16 128 40 148 122 102 l39 -22 84 28 c46 16 108 43 137 60 50 30 53
35 56 77 l3 44 -69 18 c-38 10 -104 36 -147 57 -42 22 -78 40 -79 40 -1 0 -17
-37 -36 -83 -25 -62 -48 -99 -92 -147 -55 -60 -60 -64 -71 -46 -22 36 -46 51
-144 92 -69 29 -98 46 -98 58 0 10 -23 29 -55 48 -88 49 -209 179 -252 268
-86 180 -91 384 -11 544 24 49 23 57 -11 69 -14 5 45 107 111 196 63 84 66 84
179 39 l59 -23 -3 -43 -4 -43 41 20 c108 56 278 64 395 21 132 -50 256 -170
306 -299 31 -77 39 -245 17 -322 -32 -108 -107 -218 -186 -274 -45 -30 -45
-40 -1 -50 43 -10 130 34 189 94 31 32 58 51 77 53 34 4 48 29 76 133 24 89
25 236 3 330 -27 116 -86 226 -170 313 -81 86 -190 158 -211 141 -9 -8 -38 -4
-101 12 -71 17 -105 21 -175 16 -49 -3 -88 -4 -88 -1 0 3 7 18 15 34 13 26 14
30 1 30 -31 0 -46 29 -39 75 5 43 4 45 -18 44 -13 0 -47 -7 -76 -14z"/>
<path d="M45821 59790 c-30 -17 -79 -49 -110 -72 l-56 -43 84 -8 c71 -7 86 -6
101 8 22 20 48 72 56 114 8 40 -4 40 -75 1z"/>
<path d="M46460 59646 c-9 -11 -31 -14 -93 -11 -65 3 -93 -1 -134 -16 -29 -11
-53 -25 -53 -30 0 -5 26 -9 58 -9 124 0 245 -53 342 -150 102 -102 150 -217
150 -360 0 -85 -19 -170 -52 -233 -28 -52 -28 -59 -3 -63 11 -1 39 -6 62 -9
l42 -6 25 49 c50 99 71 232 55 348 -27 195 -130 354 -301 465 -67 43 -80 46
-98 25z"/>
<path d="M45519 59507 c-45 -72 -68 -122 -95 -214 -23 -75 -27 -107 -28 -218
0 -158 15 -228 85 -373 l50 -104 -88 -89 c-48 -50 -89 -94 -91 -98 -3 -10 89
-51 115 -51 11 0 32 14 49 31 50 53 115 76 127 45 3 -7 3 -32 0 -55 -5 -35 -3
-41 13 -41 17 0 164 136 164 151 0 4 -22 9 -50 13 -55 7 -77 24 -86 64 -5 27
-37 117 -98 282 -29 80 -31 92 -31 225 0 127 3 147 28 216 15 41 27 79 27 82
0 4 -16 7 -36 7 -25 0 -35 4 -31 13 13 35 29 127 24 141 -10 25 -20 19 -48
-27z"/>
<path d="M34269 59511 c-190 -51 -365 -177 -474 -341 -94 -142 -137 -288 -136
-465 1 -313 174 -591 456 -730 135 -67 240 -88 400 -82 151 5 225 25 351 92
l82 43 421 -422 421 -421 0 -1343 0 -1342 -27 0 -27 0 29 -30 c30 -32 63 -38
110 -20 33 13 45 45 57 155 6 50 14 93 19 96 6 3 8 513 7 1250 l-3 1244 -28
60 c-24 51 -81 113 -420 452 -281 282 -397 393 -413 393 -13 0 -45 14 -73 31
-44 27 -56 31 -88 24 -79 -17 -115 -11 -201 32 l-83 41 -20 -46 c-11 -26 -34
-71 -52 -101 l-32 -53 -90 5 c-103 6 -240 44 -240 67 0 8 -27 30 -60 49 -74
42 -202 168 -239 236 -101 182 -111 405 -26 578 20 41 25 57 15 57 -41 0 -18
55 74 177 83 110 76 107 154 83 71 -22 80 -32 62 -67 -7 -13 -10 -34 -8 -47
l5 -24 56 29 c88 45 203 66 294 52 99 -14 176 -45 247 -99 196 -147 261 -409
157 -629 -38 -81 -114 -169 -186 -215 -54 -35 -59 -44 -32 -58 59 -30 151 -14
213 37 20 17 51 55 70 85 24 40 39 56 55 56 29 0 38 13 64 95 33 107 38 258
11 365 -32 133 -92 241 -181 330 -88 87 -180 147 -206 132 -11 -6 -36 -3 -78
11 -46 15 -88 21 -172 21 l-111 0 18 30 c18 29 18 30 -4 41 -19 9 -22 18 -19
58 3 46 2 47 -25 46 -15 0 -58 -8 -94 -18z"/>
<path d="M37845 58654 c-131 -28 -239 -78 -345 -159 -105 -81 -178 -174 -240
-308 -57 -122 -74 -202 -74 -342 0 -141 17 -220 75 -343 69 -150 162 -259 296
-348 65 -43 198 -101 256 -110 l37 -7 0 -1268 0 -1269 -27 0 -27 0 29 -30 c17
-18 39 -30 54 -30 78 1 100 33 111 163 4 49 12 92 18 96 8 5 12 328 14 1141 4
1171 4 1188 43 1220 12 10 24 9 61 -5 27 -10 59 -15 79 -12 43 7 158 53 215
87 42 24 45 30 48 72 l3 45 -66 17 c-37 9 -103 35 -148 58 -59 29 -82 37 -86
27 -16 -48 -98 -191 -130 -228 l-39 -44 -34 34 c-23 25 -63 47 -135 74 -77 30
-102 44 -98 55 3 10 -13 24 -53 44 -86 45 -209 173 -254 266 -88 182 -91 375
-10 542 l28 57 -24 6 -23 6 27 47 c22 39 98 144 151 210 11 13 19 13 55 3 24
-7 57 -19 75 -26 32 -14 32 -14 17 -45 -9 -17 -13 -41 -10 -54 l6 -23 67 34
c225 110 493 41 639 -164 72 -100 89 -156 89 -298 0 -99 -4 -130 -22 -178 -41
-108 -136 -216 -249 -283 -17 -10 -16 -12 13 -28 18 -9 40 -16 50 -16 66 0
160 58 228 140 21 26 49 47 64 50 21 4 30 16 48 68 105 295 -2 634 -257 808
-53 36 -80 48 -112 49 -24 1 -77 10 -118 20 -53 12 -99 15 -158 12 l-83 -5 19
32 c19 32 19 33 -2 42 -17 7 -21 18 -21 56 0 25 -2 48 -5 51 -3 2 -32 -2 -65
-9z"/>
<path d="M45900 58430 c-19 -10 -45 -19 -58 -20 -31 0 -62 -17 -62 -34 0 -17
157 -89 245 -112 106 -27 295 -25 400 4 85 25 225 87 225 101 0 34 -92 45
-225 28 -133 -17 -139 -19 -182 -58 -48 -44 -55 -45 -108 -23 l-37 15 22 24
c29 30 25 32 -170 90 -8 3 -31 -4 -50 -15z"/>
<path d="M45109 58154 c-13 -15 -118 -116 -234 -225 -115 -109 -227 -215 -247
-235 l-38 -37 0 -1562 c0 -859 3 -1564 6 -1568 4 -3 24 3 45 13 40 21 59 61
59 127 0 25 5 32 23 35 l22 3 5 1415 c6 1481 4 1441 47 1524 9 16 113 129 233
250 l218 220 -52 33 c-28 18 -54 33 -57 33 -3 0 -16 -12 -30 -26z"/>
<path d="M42445 58106 c-281 -90 -491 -317 -561 -606 -21 -89 -24 -256 -5
-345 29 -133 97 -272 189 -381 86 -103 259 -212 395 -249 l67 -18 0 -1003 c0
-970 1 -1004 19 -1004 10 0 32 5 49 11 35 12 46 39 57 130 5 45 10 58 25 62
19 5 20 28 22 903 3 819 5 903 20 944 9 24 16 46 14 48 -2 2 -22 -15 -43 -38
l-39 -42 -29 37 c-21 28 -53 49 -124 83 -53 24 -98 46 -100 48 -2 2 2 10 8 18
10 12 1 20 -51 48 -132 70 -245 216 -298 383 -41 129 -27 323 31 437 25 49 24
58 -6 58 -14 0 -25 3 -25 7 0 3 27 61 60 128 33 67 60 128 60 135 0 10 15 11
63 7 72 -6 155 -35 218 -76 44 -29 44 -29 99 -15 71 18 191 18 265 -1 246 -65
407 -309 373 -570 -10 -83 -69 -211 -123 -267 -19 -20 -35 -39 -35 -42 0 -10
61 -6 83 5 12 6 36 24 52 40 22 20 42 29 74 31 42 3 44 5 62 50 98 251 39 537
-151 728 -92 92 -170 138 -207 121 -20 -9 -38 -8 -84 5 -76 21 -224 16 -263
-9 -25 -17 -26 -17 -26 0 0 10 9 33 20 51 l20 32 -50 0 c-59 0 -67 11 -52 72
17 65 8 70 -73 44z"/>
<path d="M42840 56790 c-13 -38 -12 -42 8 -56 31 -22 27 -45 -16 -95 l-38 -44
41 -41 41 -42 74 24 c41 13 102 39 135 57 58 33 60 35 63 79 l3 45 -66 18
c-37 10 -102 35 -146 56 -44 22 -82 39 -83 39 -2 0 -9 -18 -16 -40z"/>
<path d="M34928 54470 c-180 -38 -333 -102 -492 -207 -92 -60 -178 -142 -932
-897 -727 -727 -839 -843 -893 -924 -106 -162 -169 -312 -211 -507 -20 -90
-23 -139 -27 -477 l-5 -378 -26 0 -26 0 29 -30 c22 -22 38 -30 64 -30 20 0 41
4 47 8 21 13 43 82 54 165 5 45 15 84 20 85 6 2 10 65 10 160 0 206 15 401 39
493 43 167 117 316 199 402 43 45 64 46 92 8 l21 -30 164 168 c91 92 188 199
216 237 29 38 320 338 648 667 327 328 590 597 584 597 -22 0 -179 -32 -228
-46 l-50 -14 175 178 175 179 120 2 120 1 -150 -150 c-135 -135 -147 -150
-122 -150 16 0 49 14 73 31 122 83 308 150 474 169 117 13 10404 13 10520 0
47 -5 122 -19 165 -30 100 -25 280 -113 365 -179 36 -27 425 -411 865 -853
753 -755 804 -808 853 -892 65 -112 109 -225 133 -343 19 -89 19 -232 16
-5395 l-2 -5303 -23 -76 c-44 -152 -113 -290 -199 -397 -25 -31 -108 -120
-184 -197 -75 -77 -156 -165 -179 -195 -24 -30 -311 -324 -639 -652 -642 -644
-617 -614 -489 -587 60 13 49 3 809 784 235 242 509 523 609 625 241 246 301
330 368 520 46 131 61 248 69 511 l6 237 -24 4 c-24 3 -24 3 -27 150 l-3 147
33 3 33 3 -3 70 c-1 39 -5 433 -8 877 l-5 807 -22 3 c-21 3 -22 7 -25 150 l-3
147 33 3 33 3 -3 70 c-1 39 -5 496 -8 1017 l-5 947 -22 3 c-21 3 -22 7 -25
150 l-3 147 33 3 33 3 -3 70 c-1 39 -5 496 -8 1017 l-5 947 -22 3 c-21 3 -22
7 -25 150 l-3 147 33 3 33 3 -3 70 c-1 39 -5 433 -8 877 l-5 807 -22 3 c-21 3
-22 7 -25 151 l-3 147 37 0 36 0 -6 73 c-2 39 -9 246 -15 458 -11 414 -21 517
-67 654 -69 210 -153 332 -403 590 -305 313 -1361 1372 -1411 1414 -138 117
-312 202 -510 251 -89 22 -362 38 -685 40 -129 1 -163 5 -240 27 -113 32 -248
41 -270 19 -22 -22 -75 -34 -182 -42 l-93 -7 0 -27 0 -28 378 -5 c207 -3 397
-10 422 -15 32 -8 -32 -9 -230 -6 -528 8 -895 17 -882 21 6 3 12 20 12 38 l0
34 -572 4 c-530 3 -577 4 -628 22 -80 27 -296 33 -342 9 -22 -12 -64 -19 -125
-22 l-93 -4 0 -36 0 -35 -52 7 c-29 3 -97 6 -150 6 l-98 0 0 30 0 30 -492 3
c-271 1 -592 2 -713 2 -182 0 -229 3 -274 18 -67 21 -359 25 -379 5 -6 -6 -50
-14 -97 -16 -82 -4 -85 -5 -85 -28 l0 -24 -150 0 -150 0 0 25 0 25 -712 0
c-603 0 -721 3 -762 15 -68 21 -354 21 -411 0 -22 -8 -66 -14 -97 -15 -51 0
-57 -2 -60 -22 -3 -23 -6 -23 -150 -26 l-148 -3 0 26 0 25 -568 0 c-475 0
-577 2 -618 15 -65 20 -309 20 -407 1 -40 -8 -92 -18 -116 -21 -31 -5 -45 -13
-48 -26 -4 -14 -14 -19 -42 -18 l-36 0 38 16 c20 8 37 19 37 24 0 5 -67 9
-150 9 l-150 0 0 -24 c0 -22 -6 -24 -87 -36 -49 -7 -131 -15 -183 -17 l-95 -4
60 55 c33 31 84 72 112 93 82 59 73 63 -69 33z"/>
<path d="M35049 53566 c-36 -13 -86 -37 -110 -54 -24 -17 -389 -376 -811 -799
-812 -814 -800 -801 -834 -928 -11 -41 -14 -943 -14 -5266 0 -5176 0 -5217 20
-5281 11 -36 37 -91 59 -124 25 -38 313 -333 802 -820 701 -698 769 -763 829
-791 36 -17 89 -36 118 -42 38 -8 1503 -11 5245 -11 4658 0 5199 2 5252 16 73
19 179 75 183 97 2 11 -7 21 -25 29 -15 7 -31 17 -35 22 -4 6 -60 5 -150 -4
l-143 -13 -50 -45 -50 -44 -310 7 c-170 4 -479 11 -685 15 l-375 7 455 2 c250
1 472 5 493 10 20 5 50 17 65 27 27 19 25 19 -188 26 -398 13 -3742 30 -6675
34 -1600 2 -2932 6 -2958 9 -114 10 -115 12 -898 794 -663 663 -729 732 -758
791 -17 36 -35 89 -41 119 -14 77 -14 10242 1 10325 15 86 47 147 92 171 l36
20 34 -33 33 -32 146 148 c80 81 153 163 163 182 9 19 222 241 473 492 l456
457 -112 3 -112 3 143 144 142 145 67 4 c97 6 103 2 73 -50 -14 -24 -25 -50
-25 -58 0 -8 -39 -54 -87 -102 -65 -66 -82 -88 -68 -88 12 0 55 35 105 86 47
47 97 92 112 100 41 21 10395 21 10436 0 42 -23 1520 -1507 1532 -1539 7 -20
10 -1627 10 -5203 0 -4652 -2 -5178 -16 -5212 -9 -23 -82 -105 -190 -213 -95
-97 -174 -182 -174 -190 0 -7 -208 -222 -462 -476 l-463 -464 75 3 75 3 445
453 c245 250 521 531 613 625 122 125 176 187 195 227 l27 55 3 5175 c2 4681
1 5180 -14 5230 -8 30 -31 79 -51 109 -39 60 -1377 1419 -1459 1481 -65 51
-123 76 -204 89 -114 19 -5318 51 -8152 51 l-1636 0 -29 -24 c-28 -23 -34 -24
-241 -27 -116 -2 -212 -2 -212 0 0 3 10 15 22 28 l21 23 -37 0 c-62 0 -76 13
-76 70 0 48 -1 50 -27 50 -16 0 -58 -11 -94 -24z"/>
<path d="M27585 53186 c-141 -39 -258 -108 -365 -215 -169 -170 -249 -378
-237 -620 6 -135 28 -220 87 -336 81 -159 205 -282 365 -361 131 -64 224 -86
370 -86 148 0 241 22 373 88 l94 47 466 -466 467 -467 1583 0 1582 0 0 -875 0
-875 -27 0 c-26 0 -26 0 -7 -21 30 -33 52 -41 95 -34 38 7 39 9 59 72 11 36
20 84 20 107 0 22 7 54 15 70 13 24 15 131 15 765 0 718 0 739 -22 869 l-23
132 -115 0 c-75 0 -129 -5 -155 -15 -22 -8 -66 -14 -97 -15 -55 0 -58 -1 -58
-25 l0 -25 -150 0 -150 0 0 25 0 25 -1221 0 -1222 -1 -56 27 c-46 22 -125 96
-446 416 -300 298 -396 388 -415 388 -14 0 -45 14 -69 30 -49 34 -60 35 -115
15 -45 -16 -85 -6 -188 46 -32 16 -61 29 -66 29 -5 0 -14 -17 -20 -38 -6 -20
-27 -63 -46 -94 -18 -31 -31 -60 -27 -64 9 -10 -145 5 -214 21 -83 19 -138 43
-132 58 3 8 -18 25 -52 42 -31 17 -91 65 -137 110 -127 125 -188 270 -188 445
0 113 21 193 82 313 2 4 -6 7 -17 7 -12 0 -21 2 -21 5 0 19 52 103 112 182 78
104 68 100 176 61 50 -19 52 -20 37 -41 -15 -21 -20 -68 -9 -79 3 -3 24 5 47
17 156 86 374 76 526 -26 301 -201 306 -651 8 -849 -34 -23 -62 -47 -62 -53 0
-19 66 -37 110 -31 75 11 134 52 182 126 33 52 48 68 66 68 70 0 112 297 68
473 -46 178 -146 316 -303 417 -46 30 -64 37 -74 29 -10 -8 -26 -7 -61 5 -80
26 -182 37 -251 28 l-62 -9 19 33 20 33 -25 15 c-21 14 -23 21 -17 61 5 43 4
45 -18 44 -13 0 -60 -10 -104 -23z"/>
<path d="M52741 52921 c-12 -16 -21 -33 -21 -38 0 -5 24 -20 52 -34 71 -33
178 -135 216 -206 50 -96 65 -162 60 -277 -4 -98 -10 -122 -64 -242 -3 -6 3
-14 12 -18 26 -10 70 38 112 122 30 62 36 86 40 159 6 104 -9 174 -55 273 -57
120 -199 250 -310 284 -16 5 -26 0 -42 -23z"/>
<path d="M51790 52681 c-32 -8 -55 -73 -71 -200 -20 -159 17 -344 98 -490 l35
-63 -48 -49 -48 -49 37 0 c69 0 146 94 132 164 -4 17 -25 85 -47 151 -38 109
-42 131 -46 246 -3 92 0 147 12 206 9 44 16 83 16 86 0 9 -37 7 -70 -2z"/>
<path d="M52156 51713 c-47 -24 -48 -25 -28 -39 32 -22 152 -71 193 -79 32 -6
39 -3 62 25 15 17 27 35 27 39 0 7 -153 69 -188 76 -9 1 -39 -8 -66 -22z"/>
<path d="M48470 50870 c-17 -5 6 -8 68 -9 l92 -1 0 -45 0 -45 150 0 150 0 0
45 0 45 408 3 c224 2 156 3 -150 1 -338 -2 -558 1 -558 7 0 11 -125 10 -160
-1z"/>
<path d="M50775 50811 l-39 -41 167 0 c100 0 167 4 167 10 0 5 -21 21 -47 36
-37 23 -62 29 -127 32 l-81 4 -40 -41z"/>
<path d="M37655 50475 c-112 -30 -192 -70 -285 -141 -76 -58 -820 -808 -857
-864 -49 -73 -93 -167 -116 -249 l-22 -76 -3 -2550 c-2 -1566 1 -2587 7 -2645
5 -52 21 -131 35 -175 50 -156 65 -175 521 -633 429 -433 488 -484 610 -535
148 -62 -48 -58 2835 -55 l2625 3 70 23 c96 33 211 94 265 141 l45 40 -188 1
c-122 0 -196 -4 -210 -11 -12 -7 -43 -31 -69 -55 l-47 -44 -246 0 c-135 0
-245 2 -245 4 0 3 26 17 58 33 l57 28 -870 6 c-478 3 -1540 7 -2360 8 -1649 2
-1566 -2 -1702 67 -91 46 -246 187 -599 547 -359 365 -395 423 -414 667 -12
150 -12 4837 0 4995 14 186 64 310 143 355 25 14 28 14 57 -16 l31 -30 169
172 c94 94 170 177 170 184 0 6 66 78 147 161 l146 149 -118 0 -118 0 144 149
144 149 110 1 110 1 -32 -20 c-18 -10 -45 -42 -61 -70 -16 -29 -62 -87 -101
-131 -40 -43 -67 -79 -61 -79 7 0 44 29 82 65 82 76 167 120 258 135 90 14
5070 14 5160 0 143 -23 155 -32 596 -474 236 -236 411 -420 426 -446 63 -110
58 100 56 -2760 l-3 -2605 -29 -65 c-27 -59 -64 -100 -435 -473 -223 -224
-421 -418 -440 -429 -19 -12 -61 -31 -92 -43 l-58 -21 19 -32 c11 -18 27 -32
36 -32 9 0 75 58 148 128 l131 129 109 5 109 6 231 237 c307 316 363 392 413
560 17 57 18 195 21 2605 2 1847 0 2567 -8 2624 -14 94 -45 184 -91 263 -47
80 -778 817 -869 877 -81 53 -144 80 -240 101 -68 15 -293 18 -2372 27 l-2296
11 -54 -26 c-50 -24 -64 -25 -253 -30 -110 -3 -211 -8 -225 -12 l-25 -8 28 30
c32 35 34 49 7 56 -17 4 -20 14 -20 56 0 58 -5 60 -95 36z"/>
<path d="M29385 49673 c-315 -70 -560 -313 -636 -630 -18 -73 -20 -109 -17
-213 4 -106 10 -139 37 -220 86 -255 273 -443 531 -532 91 -31 101 -32 250
-33 135 0 165 3 230 23 93 30 200 83 268 134 57 42 59 58 9 58 -53 0 -177 38
-260 80 l-78 40 -9 -25 c-6 -14 -15 -37 -21 -52 -5 -16 -24 -49 -41 -75 l-30
-48 -57 0 c-113 0 -288 48 -277 76 3 9 -16 25 -57 46 -129 68 -250 219 -295
368 -51 169 -35 314 56 493 2 4 -3 7 -12 7 -8 0 -18 5 -21 10 -8 13 50 109
121 200 63 80 66 80 166 38 45 -19 47 -21 33 -41 -16 -24 -20 -77 -6 -77 5 0
33 12 61 26 190 95 432 54 585 -100 171 -173 202 -438 75 -636 -37 -57 -133
-151 -180 -175 l-34 -18 23 -18 c51 -42 146 -13 235 71 41 38 60 50 85 50 38
0 61 38 32 54 -9 5 -17 10 -19 11 -1 1 23 55 54 119 l57 116 69 0 68 0 0 -45
0 -45 995 0 995 0 0 -1015 0 -1015 -27 0 c-26 0 -26 0 -7 -21 30 -33 52 -41
94 -34 36 6 40 10 56 57 9 28 20 83 24 122 5 39 13 72 19 74 8 3 11 259 11
890 0 874 0 889 -22 1020 l-23 132 -115 0 c-75 0 -129 -5 -155 -15 -22 -8 -66
-14 -97 -15 -55 0 -58 -1 -58 -25 l0 -25 -150 0 -150 0 0 25 0 25 -400 0 -400
0 -10 -25 -10 -25 -156 0 -156 0 5 26 5 26 -147 -7 c-217 -10 -211 -14 -310
214 -21 48 -56 115 -79 147 -75 111 -243 245 -282 224 -10 -5 -37 -1 -75 13
-47 16 -85 21 -172 21 -62 1 -113 3 -113 6 0 3 7 16 16 28 9 13 14 24 13 25
-42 22 -44 25 -41 71 3 45 2 46 -25 45 -15 -1 -37 -3 -48 -6z"/>
<path d="M51875 49396 c-14 -18 -25 -37 -24 -42 0 -5 28 -22 61 -38 181 -86
299 -313 269 -520 -7 -48 -23 -106 -41 -145 -17 -35 -29 -65 -28 -67 2 -1 15
-5 29 -9 23 -6 30 0 62 47 21 29 46 78 58 107 96 253 -68 589 -336 691 -21 8
-28 5 -50 -24z"/>
<path d="M48630 48755 l0 -45 150 0 150 0 0 45 0 45 -150 0 -150 0 0 -45z"/>
<path d="M50579 48792 c-17 -3 -29 -30 -29 -64 0 -16 14 -18 153 -18 l154 0
17 -61 c48 -175 155 -335 294 -440 l64 -48 37 15 c20 8 47 22 60 31 22 14 23
17 9 27 -173 121 -222 178 -318 366 -37 75 -77 143 -87 152 -43 39 -91 50
-217 46 -66 -1 -128 -4 -137 -6z"/>
<path d="M38650 46535 c-300 -861 -546 -1572 -548 -1580 -3 -13 42 -15 347
-15 l351 0 6 26 c9 34 -4 59 -65 126 -28 31 -51 61 -51 67 0 5 23 82 50 170
28 88 50 162 50 165 0 3 -70 6 -156 6 l-155 0 7 22 c4 13 41 122 84 243 l77
220 178 3 c166 2 177 1 170 -15 -18 -47 -85 -246 -85 -253 0 -4 14 -13 32 -19
18 -6 42 -21 54 -32 l22 -20 10 30 11 31 552 -2 553 -3 116 -378 c65 -207 119
-380 122 -382 3 -3 138 -4 301 -3 l296 3 -81 63 c-44 35 -86 66 -94 69 -10 4
-14 23 -14 65 0 51 -18 112 -119 402 -66 187 -122 349 -126 358 -6 16 -30 18
-249 20 l-241 3 -42 123 c-23 67 -38 120 -32 117 14 -9 104 23 124 45 22 25
29 83 17 148 l-9 52 113 0 c62 0 119 2 127 5 11 5 3 38 -41 163 -30 86 -95
274 -144 417 -50 143 -94 264 -98 268 -4 5 -29 -58 -54 -140 -26 -81 -49 -154
-52 -162 -3 -9 -8 -11 -13 -5 -5 5 -42 117 -82 248 -40 132 -82 253 -94 269
-20 30 -116 77 -158 77 -21 0 -50 -61 -44 -94 4 -21 4 -21 6 2 0 12 4 22 9 22
4 0 95 -285 202 -633 l196 -632 -88 -5 -87 -5 29 -47 c32 -51 38 -82 18 -95
-7 -4 -119 -10 -248 -13 l-235 -5 3 -29 4 -28 -180 3 c-99 3 -184 7 -187 11
-4 3 5 41 19 83 22 66 24 83 16 121 -10 42 1 162 16 186 10 17 94 293 94 310
0 10 -20 83 -45 163 -25 81 -52 170 -60 200 l-13 53 58 169 c32 92 91 265 131
383 l74 215 31 3 c27 3 33 -1 42 -25 136 -386 135 -384 124 -435 -10 -40 -9
-54 5 -83 9 -19 20 -35 24 -35 16 0 18 67 3 112 l-16 48 57 163 c31 89 64 185
74 212 10 28 21 62 25 78 l6 27 -149 0 c-107 0 -151 4 -159 13 -8 9 -32 111
-32 134 0 2 -33 3 -72 3 l-73 0 -545 -1565z m1414 -637 c3 -13 6 -25 6 -28 0
-5 -432 -1 -437 4 -1 1 0 12 4 24 5 22 7 22 213 22 207 0 208 0 214 -22z"/>
<path d="M41400 46520 l0 -1580 330 0 c182 0 330 3 330 7 0 4 -43 50 -95 104
l-95 96 0 1370 c0 1080 -3 1373 -12 1386 -10 12 -40 18 -132 24 l-119 8 -14
40 c-7 22 -20 59 -29 83 l-16 42 -74 0 -74 0 0 -1580z m241 -1222 l48 -138
-65 0 -64 0 1 173 c1 199 -4 201 80 -35z"/>
<path d="M26602 47320 c-219 -58 -427 -230 -527 -437 -60 -126 -79 -210 -79
-358 -1 -182 41 -324 135 -462 43 -62 142 -166 199 -208 287 -210 707 -206
984 9 l58 45 -39 6 c-100 17 -197 47 -270 83 l-80 41 -22 -53 c-12 -30 -35
-74 -51 -100 l-30 -46 -67 0 c-110 0 -280 48 -269 76 3 9 -17 25 -57 46 -94
50 -197 159 -246 260 -53 108 -71 182 -71 291 0 103 20 190 60 265 25 47 26
52 10 52 -11 0 -21 4 -24 9 -7 11 57 117 124 202 51 65 57 69 85 63 47 -10
120 -42 118 -51 -1 -4 -8 -22 -14 -39 -22 -57 -8 -65 58 -33 32 16 93 37 136
46 162 35 332 -19 456 -144 107 -109 151 -215 151 -363 0 -167 -81 -321 -221
-419 -69 -49 -70 -49 -47 -65 53 -37 158 -3 241 77 38 38 55 47 82 47 19 0 35
4 35 9 0 5 2 16 5 23 3 8 -3 19 -14 24 -18 8 -16 16 37 127 l55 117 72 0 73 0
-6 -45 -5 -45 2367 0 2366 0 0 -1015 0 -1015 -27 0 c-26 0 -26 0 -7 -21 30
-33 52 -41 95 -34 38 7 39 9 59 72 11 36 20 84 20 107 0 22 7 54 15 70 13 24
15 147 15 905 0 863 0 878 -22 1009 l-23 132 -115 0 c-75 0 -129 -5 -155 -15
-22 -8 -66 -14 -97 -15 -55 0 -58 -1 -58 -25 l0 -25 -150 0 -150 0 0 25 0 25
-1768 0 -1769 0 -11 -25 -12 -25 -156 0 -156 0 6 26 7 26 -145 -7 c-215 -11
-200 -20 -301 189 -106 216 -165 289 -301 371 -38 23 -61 32 -69 25 -7 -6 -34
-2 -76 12 -49 17 -90 21 -176 22 -62 0 -113 2 -113 4 0 2 9 17 20 32 l20 29
-22 3 c-20 3 -23 10 -26 56 -4 61 -6 62 -120 32z"/>
<path d="M54078 47045 c-10 -13 -18 -27 -17 -32 0 -4 27 -21 60 -36 79 -38
178 -137 218 -219 48 -97 66 -203 52 -301 -6 -44 -22 -105 -36 -135 -30 -65
-30 -62 -7 -62 41 0 101 94 128 202 52 203 -77 466 -283 576 -72 38 -92 39
-115 7z"/>
<path d="M48630 46415 l0 -45 150 0 150 0 0 45 0 45 -150 0 -150 0 0 -45z"/>
<path d="M52984 46433 c-5 -2 -56 -6 -114 -11 -99 -7 -105 -8 -108 -29 -3 -23
-3 -23 151 -23 l154 0 18 -66 c46 -171 155 -332 298 -440 58 -43 59 -43 93
-29 19 8 43 20 54 28 19 13 17 16 -34 51 -68 47 -163 146 -208 216 -20 30 -58
100 -86 155 -30 59 -63 108 -79 120 -24 17 -116 36 -139 28z"/>
<path d="M28832 44986 c-182 -45 -378 -178 -480 -327 -50 -74 -99 -179 -124
-265 -30 -105 -32 -304 -4 -409 81 -306 320 -540 624 -609 102 -23 278 -21
377 4 95 24 219 83 298 142 l59 43 -29 6 c-148 33 -217 54 -277 84 -39 19 -74
35 -78 35 -3 0 -20 -30 -37 -66 -17 -36 -40 -78 -51 -95 -20 -27 -26 -29 -88
-29 -110 0 -279 48 -268 76 4 9 -12 23 -44 39 -109 55 -209 160 -270 283 -81
163 -81 390 0 540 l28 52 -24 0 c-13 0 -24 4 -24 8 0 15 75 131 130 202 62 79
64 79 162 38 l47 -20 -14 -29 c-16 -30 -19 -61 -8 -72 3 -4 21 2 39 13 17 11
56 29 86 39 279 96 586 -71 663 -360 56 -208 -42 -450 -229 -566 l-48 -30 23
-17 c54 -37 163 -2 244 78 33 34 53 46 75 46 19 0 33 7 40 19 14 26 13 28 -10
34 -21 5 -22 3 83 225 9 20 17 22 81 22 l71 0 -3 -45 -4 -45 1261 0 1261 0 0
-875 0 -875 -27 0 c-26 0 -26 0 -7 -21 30 -33 52 -41 94 -34 36 6 40 10 56 57
9 28 20 83 24 122 5 39 13 72 19 74 8 3 11 220 11 750 0 729 0 750 -22 880
l-23 132 -115 0 c-75 0 -129 -5 -155 -15 -22 -8 -66 -14 -97 -15 -55 0 -58 -1
-58 -25 l0 -25 -150 0 -150 0 0 25 0 25 -663 0 -664 0 -11 -25 -12 -25 -156 0
-156 0 6 26 7 26 -148 -7 c-185 -9 -213 -1 -245 72 -91 211 -139 294 -212 371
-82 85 -191 158 -212 141 -9 -7 -26 -6 -56 5 -78 26 -170 38 -240 31 -71 -6
-77 -3 -53 29 20 26 19 33 -5 39 -17 4 -20 14 -20 56 0 58 -3 59 -98 37z"/>
<path d="M51351 44717 c-17 -18 -31 -37 -30 -42 0 -6 28 -23 62 -39 161 -76
277 -269 277 -460 0 -67 -24 -165 -55 -225 l-25 -50 32 -6 c27 -6 35 -3 56 21
13 16 38 58 55 94 28 58 32 76 35 175 4 98 1 119 -22 188 -55 163 -178 303
-317 361 -36 15 -36 15 -68 -17z"/>
<path d="M50100 44121 c-58 -5 -65 -9 -71 -31 -17 -62 -23 -59 147 -62 l157
-3 13 -53 c45 -173 176 -366 316 -460 l47 -32 43 19 c88 39 88 41 8 95 -116
79 -180 158 -266 328 -94 185 -108 197 -240 203 -49 1 -118 0 -154 -4z"/>
<path d="M48630 44075 l0 -45 150 0 150 0 0 45 0 45 -150 0 -150 0 0 -45z"/>
<path d="M29111 41826 c-249 -249 -448 -455 -442 -457 7 -3 -1 -18 -18 -39
-17 -19 -30 -43 -31 -52 0 -10 -20 -27 -48 -41 -47 -24 -49 -24 -93 -8 -29 11
-43 22 -41 33 3 17 -43 37 -143 63 -56 14 -61 14 -85 -3 -14 -10 -51 -22 -84
-26 l-58 -6 19 33 20 33 -21 10 c-18 8 -21 17 -19 58 l1 49 -53 -7 c-187 -22
-416 -168 -536 -343 -45 -64 -104 -197 -125 -278 -24 -96 -24 -285 1 -380 69
-267 251 -478 501 -579 166 -68 383 -74 554 -17 52 18 122 48 155 67 71 42
144 96 145 107 0 4 -15 7 -33 7 -56 0 -185 38 -266 77 -42 21 -78 39 -81 40
-3 2 -14 -18 -24 -45 -11 -26 -35 -71 -53 -101 l-35 -54 -87 6 c-109 7 -254
51 -247 76 4 11 -10 23 -47 41 -32 15 -85 58 -137 110 -95 95 -147 184 -174
300 -32 135 -12 308 47 414 24 42 24 46 7 46 -10 0 -21 4 -24 9 -7 11 56 114
124 201 52 68 57 71 88 65 18 -3 53 -15 78 -25 l45 -20 -16 -31 c-9 -17 -14
-41 -11 -54 l6 -23 53 29 c135 73 324 76 460 8 112 -56 211 -164 258 -279 27
-69 37 -223 19 -301 -30 -127 -108 -240 -215 -310 -70 -47 -72 -63 -11 -75 72
-13 188 50 255 139 21 28 43 47 61 50 18 4 31 16 38 34 45 116 61 258 42 373
-7 41 -33 129 -58 195 -37 97 -45 133 -46 189 -1 62 1 70 25 88 41 31 101 35
144 8 l37 -23 49 49 c27 26 49 51 49 55 0 8 -123 59 -143 59 -6 0 -19 5 -27
10 -12 8 8 32 100 125 63 63 120 115 127 115 6 0 42 -16 79 -35 l68 -36 106
106 105 105 -115 0 -115 0 150 150 150 150 77 0 77 0 -20 -46 c-11 -26 -17
-49 -14 -52 3 -3 -38 -50 -92 -104 -72 -72 -92 -98 -78 -98 12 0 62 42 125
105 l105 105 1336 0 1337 0 5 -377 c6 -417 11 -468 72 -650 42 -125 99 -241
178 -358 51 -76 191 -221 876 -906 880 -879 893 -891 1096 -990 106 -51 209
-87 328 -115 59 -14 141 -18 470 -21 l397 -4 0 -1522 0 -1522 -407 -409 c-225
-225 -402 -405 -395 -402 21 12 13 -9 -12 -33 -14 -13 -26 -35 -28 -49 -2 -14
-10 -28 -18 -32 -8 -4 -32 -15 -52 -25 -36 -17 -40 -17 -83 0 -35 13 -43 20
-35 30 8 10 -3 17 -47 33 -32 12 -80 27 -106 33 -43 11 -51 10 -75 -8 -17 -13
-49 -22 -85 -25 l-57 -5 20 34 c10 18 15 33 10 33 -25 0 -39 32 -33 77 l6 45
-34 -7 c-104 -20 -163 -40 -244 -80 -165 -82 -290 -206 -371 -370 -61 -124
-85 -224 -85 -360 -2 -242 83 -440 259 -606 112 -106 217 -164 373 -206 87
-23 288 -23 384 0 88 22 233 92 308 148 l58 43 -75 13 c-96 16 -186 46 -253
84 -29 16 -57 29 -61 29 -5 0 -19 -25 -30 -55 -12 -31 -35 -76 -52 -100 -29
-43 -34 -45 -78 -45 -99 1 -282 52 -282 79 0 9 -22 28 -48 42 -163 91 -278
247 -316 432 -28 135 -13 267 43 381 27 55 28 59 10 63 -28 8 -24 21 26 97 65
100 128 175 146 176 20 0 110 -30 126 -42 10 -8 9 -16 -2 -39 -17 -32 -18 -39
-7 -57 7 -10 20 -7 58 13 144 75 335 73 478 -3 28 -15 81 -57 119 -93 223
-221 199 -583 -53 -773 -33 -24 -65 -46 -72 -48 -21 -7 7 -35 42 -41 69 -14
180 47 251 139 27 36 49 54 66 56 20 2 29 12 40 43 41 118 54 264 32 379 -6
32 -31 113 -56 180 -49 129 -66 233 -43 261 7 8 36 22 66 31 l53 17 42 -27 41
-28 54 53 c53 53 54 53 31 66 -12 7 -51 22 -87 34 -36 12 -69 24 -74 27 -4 2
43 56 105 119 129 129 129 129 222 72 59 -36 21 -64 304 220 l214 215 -36 14
c-44 18 -50 40 -36 131 15 93 16 2861 1 2861 -6 0 -10 39 -10 98 0 59 -6 119
-15 148 -8 27 -15 50 -15 52 0 1 52 2 115 2 l115 0 0 -45 0 -45 855 0 855 0 0
-1004 0 -1004 -72 -22 c-259 -78 -463 -273 -549 -523 -91 -266 -45 -546 128
-775 75 -98 167 -173 288 -233 270 -134 579 -113 832 59 89 61 93 68 36 76
-87 13 -196 47 -265 83 -38 20 -70 34 -72 32 -2 -2 -19 -38 -39 -79 -47 -99
-67 -120 -117 -120 -98 0 -287 54 -283 81 2 8 -20 26 -55 44 -119 62 -240 211
-293 362 -45 128 -34 325 26 443 30 60 31 68 4 72 -19 3 -18 7 18 66 21 35 63
95 93 133 51 66 57 70 87 66 17 -3 52 -15 77 -26 45 -20 45 -20 31 -48 -17
-32 -18 -43 -7 -61 7 -10 19 -7 53 12 134 75 326 75 478 -1 68 -34 176 -140
213 -209 78 -145 78 -336 1 -488 -30 -60 -119 -156 -180 -194 -23 -15 -43 -32
-43 -39 0 -6 15 -17 34 -23 71 -23 159 20 252 124 39 44 67 66 81 66 19 0 26
11 43 68 69 219 41 431 -80 616 -76 117 -234 244 -287 231 -12 -3 -55 6 -95
19 -40 13 -107 32 -148 41 -41 10 -77 19 -79 21 -2 2 11 22 28 46 l32 44 -1
915 c0 591 -4 915 -10 917 -6 2 -10 44 -10 95 0 85 -6 128 -24 185 -7 22 -7
22 103 22 l111 0 0 -29 c0 -66 -90 -61 1006 -61 l994 0 0 -2372 0 -2373 -89
-28 c-441 -139 -681 -616 -532 -1054 74 -217 248 -403 459 -493 110 -47 193
-63 322 -63 139 0 246 25 365 84 69 35 185 112 185 123 0 2 -33 10 -72 16 -84
14 -195 52 -254 86 -22 13 -45 24 -51 24 -6 0 -20 -23 -32 -52 -27 -66 -77
-144 -97 -152 -24 -9 -164 14 -247 41 -60 20 -76 29 -73 42 4 11 -12 26 -56
51 -141 80 -257 234 -298 396 -36 140 -17 320 44 430 l25 44 -25 0 c-21 0 -24
3 -19 22 11 33 60 113 116 188 58 77 61 77 166 38 61 -22 68 -31 64 -75 -1
-18 0 -33 2 -33 3 0 29 11 59 25 61 28 183 48 237 40 129 -21 201 -50 281
-113 124 -98 190 -238 190 -403 0 -154 -58 -282 -174 -386 -32 -28 -55 -56
-51 -62 3 -6 23 -11 43 -11 49 0 128 47 179 104 32 36 47 46 71 46 28 0 32 5
50 53 43 115 57 282 32 391 -20 89 -70 200 -119 267 -84 113 -234 224 -272
201 -13 -8 -34 -5 -87 13 -113 38 -185 50 -226 38 -30 -9 -34 -9 -29 6 3 9 23
39 45 67 l38 51 0 2284 c0 2016 -2 2284 -15 2292 -12 6 -15 29 -15 106 0 83
-4 105 -24 144 l-23 47 143 0 144 0 -7 -45 -6 -45 987 0 986 0 0 -1268 0
-1267 -74 -23 c-41 -13 -107 -40 -148 -61 l-73 -37 -3 -50 -3 -49 69 -17 c70
-16 182 -65 182 -79 0 -16 30 -17 71 -2 98 33 263 16 374 -40 290 -145 370
-546 156 -789 -23 -25 -41 -49 -41 -52 0 -12 61 -6 88 8 15 8 38 26 51 40 19
20 34 26 67 26 39 0 43 2 57 38 79 199 73 381 -19 571 -37 76 -61 109 -123
170 -42 42 -102 91 -134 110 -54 32 -59 33 -76 17 -17 -16 -23 -15 -97 5 -94
26 -179 22 -242 -10 l-43 -22 16 38 c9 21 38 67 64 104 l48 66 2 1181 2 1182
-20 0 c-19 0 -21 6 -21 53 0 28 -4 79 -10 112 -8 51 -16 66 -48 97 l-39 36 96
4 c53 1 151 1 218 -1 l122 -3 -24 -22 c-13 -11 -26 -31 -30 -43 l-6 -23 825 0
826 0 0 -1405 0 -1405 471 -469 c259 -258 469 -473 467 -477 -122 -250 -132
-289 -132 -469 1 -111 5 -143 28 -218 45 -151 114 -265 223 -369 204 -194 490
-272 762 -208 97 23 236 87 236 110 0 29 -74 39 -186 24 -57 -7 -120 -14 -140
-14 -28 0 -43 -8 -78 -45 -24 -25 -46 -45 -50 -45 -12 0 -182 70 -233 96 -51
26 -55 33 -36 52 14 14 16 11 -43 45 -202 115 -329 340 -329 582 0 94 24 215
55 274 l16 31 -29 0 c-16 0 -31 2 -34 5 -3 3 5 31 18 63 33 79 31 127 -6 185
l-30 47 25 0 c14 0 25 3 25 7 0 4 -175 183 -390 398 -335 337 -393 400 -417
451 l-28 59 -3 1242 -2 1242 -23 3 c-20 3 -22 10 -28 93 -6 99 -17 125 -71
166 -32 23 -39 24 -193 25 -88 0 -230 2 -315 4 -107 3 -38 6 225 10 239 3 380
9 380 15 0 5 -29 18 -65 28 -59 17 -120 19 -637 24 l-573 5 0 -31 0 -31 -150
0 -150 0 0 31 0 31 -122 -5 c-92 -3 -138 -10 -183 -26 -68 -25 -95 -24 -210
10 l-80 23 -722 4 -723 3 0 -26 0 -25 -150 0 -150 0 0 25 c0 14 -6 28 -14 31
-21 8 -249 -13 -323 -30 -57 -13 -69 -12 -145 7 -79 20 -115 21 -820 24 l-736
4 -4 -23 c-3 -23 -5 -23 -150 -26 l-148 -3 0 26 0 25 -107 0 c-59 0 -149 -8
-200 -17 -82 -14 -101 -15 -156 -3 -48 11 -206 15 -679 17 l-618 4 0 -26 0
-25 -150 0 -150 0 0 25 0 25 -107 0 c-59 0 -149 -8 -200 -17 -81 -14 -102 -15
-156 -3 -42 8 -205 15 -502 20 -356 6 -454 11 -514 25 -163 37 -319 108 -456
208 -110 81 -1610 1582 -1692 1692 -74 102 -134 216 -172 331 -54 161 -63 238
-67 594 -4 273 -8 347 -26 463 l-22 137 -116 0 c-75 0 -129 -5 -155 -15 -22
-8 -66 -14 -97 -15 -55 0 -58 -1 -58 -25 l0 -25 -150 0 -150 0 0 25 0 25 -746
0 -745 0 -33 -25 c-33 -25 -34 -25 -241 -25 l-207 0 16 25 16 25 -64 0 c-75 0
-84 8 -93 79 l-6 51 -51 0 -51 0 -454 -454z"/>
<path d="M48630 42015 l0 -45 150 0 150 0 0 45 0 45 -150 0 -150 0 0 -45z"/>
<path d="M51210 42050 c-25 -4 -106 -6 -180 -3 l-135 6 40 -42 39 -41 190 0
191 0 365 -364 365 -364 63 11 c34 6 62 13 62 17 0 3 -163 168 -362 367 -399
397 -420 413 -533 419 -33 1 -80 -1 -105 -6z"/>
<path d="M53092 41180 c-12 -16 -22 -31 -22 -33 0 -3 25 -17 55 -32 67 -33
162 -118 204 -184 94 -146 105 -345 27 -504 -19 -39 -21 -50 -10 -54 38 -14
109 80 141 187 9 32 16 87 15 132 -1 146 -56 271 -167 383 -65 66 -172 135
-207 135 -8 0 -24 -13 -36 -30z"/>
<path d="M52164 40951 c-47 -12 -51 -16 -70 -93 -14 -54 -19 -108 -19 -208 1
-163 15 -223 85 -367 40 -81 67 -119 129 -185 43 -46 99 -97 123 -115 l44 -32
44 20 c77 35 77 36 2 89 -205 144 -322 375 -322 635 0 76 18 204 35 248 8 19
0 20 -51 8z"/>
<path d="M45904 38745 c-36 -9 -72 -29 -125 -72 -104 -85 -130 -96 -206 -87
l-63 6 0 37 c0 20 -4 41 -8 47 -7 11 -238 25 -274 17 -14 -3 -18 -15 -18 -44
l0 -39 -55 0 c-57 0 -98 -18 -109 -47 -5 -13 31 -14 326 -10 355 5 383 8 553
63 84 28 246 101 280 128 18 14 9 15 -115 15 -74 -1 -158 -7 -186 -14z"/>
<path d="M42093 35766 c-253 -266 -301 -653 -120 -976 55 -98 196 -242 295
-300 205 -120 459 -148 682 -74 84 28 195 89 254 138 l39 33 -49 7 c-91 13
-168 37 -251 77 -45 21 -84 39 -87 39 -3 0 -11 -18 -17 -41 -11 -36 -11 -42 4
-51 28 -15 19 -34 -21 -46 -25 -8 -50 -26 -72 -53 -32 -40 -34 -41 -80 -35
-66 9 -157 33 -215 57 -61 26 -60 25 -46 42 9 12 -1 22 -55 53 -139 81 -259
242 -301 404 -33 128 -16 302 41 421 l23 49 -29 0 c-37 0 -36 3 44 165 56 114
66 154 42 162 -6 2 -43 -30 -81 -71z"/>
<path d="M46455 34908 c-12 -7 -53 -11 -102 -9 -68 2 -90 -2 -130 -20 -47 -22
-48 -23 -18 -26 180 -20 286 -66 382 -165 98 -103 143 -215 143 -358 0 -86
-18 -163 -55 -233 -14 -28 -24 -51 -22 -53 2 -2 31 -7 64 -10 55 -6 61 -5 77
17 9 13 28 60 42 104 30 93 36 233 15 325 -35 151 -149 312 -285 400 -65 43
-79 46 -111 28z"/>
<path d="M57997 27625 c-28 -61 -66 -198 -89 -320 -21 -108 -22 -137 -28
-1530 -6 -1294 -8 -1429 -24 -1525 -29 -172 -74 -331 -142 -505 l-7 -20 22 20
c51 44 125 225 166 406 60 262 58 190 65 1734 l6 1420 27 150 c15 82 26 163
25 180 l-3 30 -18 -40z"/>
<path d="M47640 25048 c-29 -24 -40 -45 -85 -164 -178 -467 -288 -1067 -347
-1889 -18 -244 -18 -1489 0 -1790 100 -1717 335 -3473 742 -5540 72 -364 82
-489 60 -703 -13 -118 -59 -308 -101 -417 -72 -187 -196 -389 -330 -537 -35
-39 -83 -102 -106 -139 -23 -38 -51 -82 -62 -98 -29 -40 -26 -44 12 -25 61 31
176 126 269 223 158 163 278 348 358 551 90 231 122 394 122 635 0 171 -11
256 -67 545 -495 2534 -755 4746 -755 6430 0 819 53 1458 170 2051 19 101 26
155 19 158 -6 2 -22 13 -35 25 l-26 21 17 80 c9 44 26 116 39 160 24 86 32 92
94 71 14 -5 22 -3 22 4 0 6 14 45 30 87 33 81 35 107 19 182 -14 66 -38 97
-59 79z"/>
<path d="M47906 24747 c-16 -16 -26 -37 -26 -54 0 -28 22 -38 2353 -1051 1293
-562 2377 -1032 2407 -1043 166 -65 515 -174 650 -204 247 -54 583 -111 770
-129 l55 -5 -60 15 c-33 9 -141 36 -240 60 -251 62 -418 112 -725 214 -280 93
-350 121 -905 367 -557 247 -613 271 -750 333 -71 32 -233 104 -360 160 -126
56 -255 113 -285 127 -30 14 -109 49 -175 78 -140 61 -632 279 -755 335 -121
55 -603 269 -810 360 -96 42 -195 86 -220 98 -25 11 -88 39 -140 62 -52 23
-120 53 -150 67 -143 66 -160 70 -160 40 -1 -35 -17 -38 -71 -13 -139 63 -241
106 -253 106 -10 0 -12 11 -9 39 5 45 0 50 -66 58 -44 5 -52 3 -75 -20z"/>
<path d="M47075 13286 c-121 -22 -179 -37 -200 -52 -17 -12 -70 -45 -120 -73
-81 -47 -86 -52 -50 -45 139 24 423 120 543 184 49 25 33 24 -173 -14z"/>
<path d="M46843 13284 c-35 -7 -98 -18 -140 -24 -82 -10 -108 -14 -378 -55
-167 -25 -444 -66 -720 -104 -166 -24 -647 -83 -780 -96 -33 -3 -76 -8 -95
-10 -39 -5 -274 -30 -424 -45 -242 -25 -665 -61 -936 -80 -162 -12 -333 -25
-380 -30 -216 -23 497 15 965 50 789 61 1924 193 2355 274 14 3 43 7 64 11 21
3 48 7 60 10 12 2 40 6 63 9 22 3 52 7 65 10 12 3 37 7 53 10 135 19 284 50
303 62 43 28 24 30 -75 8z"/>
<path d="M48680 7570 c-151 -36 -489 -113 -515 -116 -27 -3 -145 -28 -275 -57
-58 -13 -134 -29 -170 -36 -36 -6 -76 -14 -90 -16 -38 -7 -126 -25 -225 -46
-94 -20 -166 -33 -405 -74 -80 -14 -152 -28 -160 -30 -14 -5 -730 -126 -855
-146 -169 -26 -413 -62 -605 -89 -118 -16 -262 -37 -320 -45 -628 -90 -1634
-198 -2339 -250 -113 -9 -277 -22 -365 -30 -89 -8 -188 -15 -221 -16 -33 -1
-51 -4 -40 -6 39 -10 839 38 1375 82 955 80 2010 214 2865 365 127 23 244 43
260 46 31 5 220 41 264 50 14 3 160 32 325 65 683 137 1725 377 1636 377 -14
0 -77 -12 -140 -28z"/>
</g>
</svg>
